<svg xmlns="http://www.w3.org/2000/svg" version="1.1" xmlns:xlink="http://www.w3.org/1999/xlink" xmlns:svgjs="http://svgjs.com/svgjs" width="1440" height="560" preserveAspectRatio="none" viewBox="0 0 1440 560"><g mask="url(&quot;#SvgjsMask1002&quot;)" fill="none"><rect width="1440" height="560" x="0" y="0" fill="rgba(255, 255, 255, 1)"></rect><path d="M630.55 613.13C764.04 532.68 695.75 72.47 935.11 69.14 1174.47 65.81 1378.97 321.52 1544.23 326.74" stroke="rgba(0, 0, 0, 1)" stroke-width="2"></path><path d="M236.57 572.44C437.75 557.73 577.83 165.35 932.43 164.05 1287.04 162.75 1451.12 297.84 1628.3 298.45" stroke="rgba(0, 0, 0, 1)" stroke-width="2"></path><path d="M351.92 566.41C496.35 508.3 432.94 67.59 720.51 64.48 1008.08 61.37 1267.7 247.88 1457.69 249.28" stroke="rgba(0, 0, 0, 1)" stroke-width="2"></path><path d="M229.66 576.1C408.27 574.94 562.86 413.65 924.45 409.65 1286.05 405.65 1435.9 177.61 1619.25 174.45" stroke="rgba(0, 0, 0, 1)" stroke-width="2"></path><path d="M386.95 586.13C529.03 549.01 569.74 166.77 790.06 158.89 1010.37 151.01 991.61 228.89 1193.16 228.89 1394.72 228.89 1493.99 159.15 1596.27 158.89" stroke="rgba(0, 0, 0, 1)" stroke-width="2"></path></g><defs><mask id="SvgjsMask1002"><rect width="1440" height="560" fill="#ffffff"></rect></mask></defs></svg>